<svg width="139" height="123" viewBox="0 0 139 123" fill="none" xmlns="http://www.w3.org/2000/svg">
<path fill-rule="evenodd" clip-rule="evenodd" d="M0 61.1846C0 58.8808 0.915187 56.6713 2.54423 55.0423C4.17327 53.4132 6.38272 52.498 8.68653 52.498H109.329L72.0287 15.2155C70.3976 13.5844 69.4813 11.3721 69.4813 9.0654C69.4813 6.75867 70.3976 4.54643 72.0287 2.91533C73.6598 1.28423 75.872 0.367889 78.1788 0.367889C80.4855 0.367889 82.6977 1.28423 84.3288 2.91533L136.448 55.0345C137.257 55.8414 137.899 56.8 138.337 57.8553C138.775 58.9106 139 60.042 139 61.1846C139 62.3272 138.775 63.4585 138.337 64.5138C137.899 65.5692 137.257 66.5277 136.448 67.3346L84.3288 119.454C82.6977 121.085 80.4855 122.001 78.1788 122.001C75.872 122.001 73.6598 121.085 72.0287 119.454C70.3976 117.823 69.4813 115.61 69.4813 113.304C69.4813 110.997 70.3976 108.785 72.0287 107.154L109.329 69.8711H8.68653C6.38272 69.8711 4.17327 68.9559 2.54423 67.3269C0.915187 65.6978 0 63.4884 0 61.1846Z" fill="black"/>
</svg>
