<svg width="24" height="21" viewBox="0 0 24 21" fill="none" xmlns="http://www.w3.org/2000/svg">
<path d="M1.5 9.00107H19.29L13.845 2.46166C13.5904 2.15536 13.4679 1.76047 13.5045 1.36387C13.541 0.967267 13.7337 0.601432 14.04 0.346847C14.3463 0.0922623 14.7412 -0.0302196 15.1379 0.00634668C15.5345 0.042913 15.9004 0.235532 16.155 0.54183L23.655 9.54102C23.7055 9.6126 23.7506 9.6878 23.79 9.766C23.79 9.841 23.79 9.88599 23.895 9.96099C23.963 10.133 23.9986 10.316 24 10.5009C23.9986 10.6859 23.963 10.8689 23.895 11.0409C23.895 11.1159 23.895 11.1609 23.79 11.2359C23.7506 11.3141 23.7055 11.3893 23.655 11.4609L16.155 20.46C16.014 20.6294 15.8374 20.7655 15.6377 20.8588C15.4381 20.9522 15.2204 21.0004 15 21C14.6495 21.0007 14.3099 20.8786 14.04 20.655C13.8881 20.5291 13.7626 20.3745 13.6705 20.2C13.5785 20.0255 13.5218 19.8345 13.5037 19.6381C13.4856 19.4416 13.5064 19.2435 13.565 19.0552C13.6235 18.8668 13.7187 18.6918 13.845 18.5402L19.29 12.0008H1.5C1.10218 12.0008 0.720643 11.8428 0.439339 11.5615C0.158034 11.2802 0 10.8987 0 10.5009C0 10.1031 0.158034 9.72165 0.439339 9.44037C0.720643 9.15909 1.10218 9.00107 1.5 9.00107Z" fill="white"/>
</svg>
