<svg width="20" height="20" viewBox="0 0 20 20" fill="none" xmlns="http://www.w3.org/2000/svg">
<path d="M14.2417 19.9828C13.9765 19.9828 13.7221 19.8775 13.5346 19.6899C13.3471 19.5024 13.2417 19.248 13.2417 18.9828V16.3828C13.2728 16.0837 13.2408 15.7815 13.1478 15.4955C13.0547 15.2096 12.9028 14.9464 12.7017 14.7228C12.5772 14.5878 12.4923 14.4211 12.4563 14.241C12.4203 14.0609 12.4346 13.8744 12.4976 13.7018C12.5606 13.5293 12.6699 13.3775 12.8135 13.263C12.9571 13.1485 13.1295 13.0758 13.3117 13.0528C15.7517 12.7628 18.0017 11.9828 18.0017 7.75281C18.0025 6.96289 17.7693 6.19042 17.3317 5.53281C16.9279 4.92744 16.7804 4.18668 16.9217 3.47281C17.0118 3.00713 17.0118 2.52849 16.9217 2.06281C16.1729 2.31599 15.4679 2.68369 14.8317 3.15281C14.7114 3.23823 14.5737 3.29597 14.4285 3.3219C14.2833 3.34784 14.1341 3.34132 13.9917 3.30281C12.187 2.79287 10.2764 2.79287 8.4717 3.30281C8.32929 3.34132 8.18012 3.34784 8.0349 3.3219C7.88967 3.29597 7.75198 3.23823 7.6317 3.15281C6.99164 2.67825 6.27913 2.31018 5.5217 2.06281C5.4266 2.528 5.4266 3.00762 5.5217 3.47281C5.65278 4.19567 5.49866 4.94119 5.0917 5.55281C4.65596 6.21504 4.4231 6.99009 4.4217 7.78281C4.4217 11.6728 6.3017 12.7128 9.1217 13.0728C9.30623 13.0957 9.48071 13.1696 9.62557 13.2862C9.77042 13.4028 9.87989 13.5574 9.9417 13.7328C9.99984 13.903 10.011 14.0857 9.97407 14.2617C9.93711 14.4376 9.85338 14.6004 9.7317 14.7328C9.5372 14.9407 9.38791 15.1867 9.29324 15.4552C9.19858 15.7237 9.1606 16.0089 9.1817 16.2928V18.9828C9.1817 19.248 9.07634 19.5024 8.88881 19.6899C8.70127 19.8775 8.44692 19.9828 8.1817 19.9828C7.91648 19.9828 7.66213 19.8775 7.47459 19.6899C7.28705 19.5024 7.1817 19.248 7.1817 18.9828V18.4128C6.19906 18.5258 5.20373 18.3941 4.28428 18.0295C3.36483 17.6649 2.54979 17.0786 1.9117 16.3228C1.5837 15.9593 1.19018 15.6607 0.751699 15.4428C0.624317 15.41 0.504648 15.3524 0.399526 15.2733C0.294404 15.1942 0.205886 15.0952 0.139028 14.9819C0.0721701 14.8686 0.0282802 14.7433 0.00986455 14.613C-0.00855112 14.4828 -0.00113179 14.3502 0.0316987 14.2228C0.0645292 14.0954 0.122128 13.9758 0.201206 13.8706C0.280285 13.7655 0.379294 13.677 0.492582 13.6101C0.605869 13.5433 0.731216 13.4994 0.861466 13.481C0.991715 13.4626 1.12432 13.47 1.2517 13.5028C2.02095 13.783 2.7083 14.2504 3.2517 14.8628C4.2517 15.8628 5.2517 16.7428 7.1517 16.3828C7.11829 15.8459 7.19661 15.3079 7.3817 14.8028C5.3217 14.2828 2.3817 12.8028 2.3817 7.80281C2.37906 6.61844 2.72701 5.45979 3.3817 4.47281C3.5033 4.29062 3.54987 4.06851 3.5117 3.85281C3.30963 2.77339 3.42424 1.65855 3.8417 0.642813C3.89842 0.507377 3.98427 0.386095 4.09316 0.287582C4.20204 0.189069 4.33128 0.115743 4.4717 0.0728128C4.8117 -0.0271872 6.0317 -0.227187 8.3417 1.27281C10.2117 0.822817 12.1617 0.822817 14.0317 1.27281C16.3417 -0.227187 17.5617 -0.0371872 17.8917 0.0728128C18.0321 0.115743 18.1614 0.189069 18.2702 0.287582C18.3791 0.386095 18.465 0.507377 18.5217 0.642813C18.94 1.66185 19.0546 2.78012 18.8517 3.86281C18.8312 3.96037 18.8304 4.06102 18.8493 4.15889C18.8682 4.25676 18.9064 4.34988 18.9617 4.43281C19.6183 5.42262 19.9663 6.58504 19.9617 7.77281C19.9617 12.8428 17.0417 14.3128 14.9617 14.7728C15.1449 15.3094 15.2197 15.8771 15.1817 16.4428V18.9828C15.1822 19.238 15.0851 19.4836 14.9103 19.6695C14.7356 19.8554 14.4964 19.9675 14.2417 19.9828V19.9828Z" fill="#A5A5A5"/>
</svg>
