<svg width="20" height="22" viewBox="0 0 20 22" fill="none" xmlns="http://www.w3.org/2000/svg">
<path fill-rule="evenodd" clip-rule="evenodd" d="M20 2.75C20 1.232 18.7938 0 17.3077 0H13.4615C13.1555 4.65775e-09 12.862 0.124171 12.6456 0.345196C12.4293 0.566221 12.3077 0.865995 12.3077 1.17857C12.3077 1.49115 12.4293 1.79092 12.6456 2.01195C12.862 2.23297 13.1555 2.35714 13.4615 2.35714H17.3077C17.4097 2.35714 17.5075 2.39853 17.5797 2.47221C17.6518 2.54588 17.6923 2.64581 17.6923 2.75V19.25C17.6923 19.4669 17.52 19.6429 17.3077 19.6429H13.4615C13.1555 19.6429 12.862 19.767 12.6456 19.9881C12.4293 20.2091 12.3077 20.5089 12.3077 20.8214C12.3077 21.134 12.4293 21.4338 12.6456 21.6548C12.862 21.8758 13.1555 22 13.4615 22H17.3077C18.0217 22 18.7065 21.7103 19.2114 21.1945C19.7163 20.6788 20 19.9793 20 19.25V2.75ZM9.90769 9.82143L6.87692 6.72571C6.76356 6.61782 6.67263 6.4877 6.60957 6.34313C6.5465 6.19856 6.51259 6.0425 6.50986 5.88425C6.50712 5.726 6.53562 5.56881 6.59366 5.42206C6.65169 5.27531 6.73807 5.142 6.84763 5.03008C6.9572 4.91817 7.08771 4.82994 7.23139 4.77066C7.37506 4.71139 7.52895 4.68228 7.68388 4.68507C7.83881 4.68786 7.9916 4.7225 8.13314 4.78692C8.27467 4.85133 8.40206 4.94421 8.50769 5.06L13.5077 10.1671C13.7238 10.3881 13.8451 10.6877 13.8451 11C13.8451 11.3123 13.7238 11.6119 13.5077 11.8329L8.50769 16.94C8.40206 17.0558 8.27467 17.1487 8.13314 17.2131C7.9916 17.2775 7.83881 17.3121 7.68388 17.3149C7.52895 17.3177 7.37506 17.2886 7.23139 17.2293C7.08771 17.1701 6.9572 17.0818 6.84763 16.9699C6.73807 16.858 6.65169 16.7247 6.59366 16.5779C6.53562 16.4312 6.50712 16.274 6.50986 16.1158C6.51259 15.9575 6.5465 15.8014 6.60957 15.6569C6.67263 15.5123 6.76356 15.3822 6.87692 15.2743L9.90769 12.1786H1.15385C0.847827 12.1786 0.554342 12.0544 0.337954 11.8334C0.121566 11.6123 -3.57628e-07 11.3126 -3.57628e-07 11C-3.57628e-07 10.6874 0.121566 10.3876 0.337954 10.1666C0.554342 9.9456 0.847827 9.82143 1.15385 9.82143H9.90769V9.82143Z" fill="#63BF1F"/>
</svg>
