<svg width="19" height="20" viewBox="0 0 19 20" fill="none" xmlns="http://www.w3.org/2000/svg">
<path fill-rule="evenodd" clip-rule="evenodd" d="M0 2.5C0 1.12 1.1459 0 2.55782 0H6.21185C6.50259 4.23432e-09 6.78141 0.112882 6.98699 0.313814C7.19257 0.514746 7.30806 0.787268 7.30806 1.07143C7.30806 1.35559 7.19257 1.62811 6.98699 1.82904C6.78141 2.02997 6.50259 2.14286 6.21185 2.14286H2.55782C2.46091 2.14286 2.36797 2.18048 2.29944 2.24746C2.23092 2.31444 2.19242 2.40528 2.19242 2.5V17.5C2.19242 17.6971 2.35612 17.8571 2.55782 17.8571H6.21185C6.50259 17.8571 6.78141 17.97 6.98699 18.171C7.19257 18.3719 7.30806 18.6444 7.30806 18.9286C7.30806 19.2127 7.19257 19.4853 6.98699 19.6862C6.78141 19.8871 6.50259 20 6.21185 20H2.55782C1.87945 20 1.22885 19.7366 0.749169 19.2678C0.269484 18.7989 0 18.163 0 17.5V2.5ZM15.2592 8.92857H6.94266C6.65193 8.92857 6.3731 9.04145 6.16752 9.24239C5.96194 9.44332 5.84645 9.71584 5.84645 10C5.84645 10.2842 5.96194 10.5567 6.16752 10.7576C6.3731 10.9585 6.65193 11.0714 6.94266 11.0714H15.2592L12.3799 13.8857C12.2722 13.9838 12.1858 14.1021 12.1259 14.2335C12.0659 14.3649 12.0337 14.5068 12.0311 14.6507C12.0285 14.7945 12.0556 14.9374 12.1107 15.0709C12.1659 15.2043 12.2479 15.3255 12.352 15.4272C12.4561 15.5289 12.5801 15.6091 12.7166 15.663C12.8531 15.7169 12.9993 15.7434 13.1465 15.7408C13.2937 15.7383 13.4389 15.7068 13.5733 15.6483C13.7078 15.5897 13.8288 15.5053 13.9292 15.4L18.6794 10.7571C18.8847 10.5562 19 10.2839 19 10C19 9.71607 18.8847 9.44375 18.6794 9.24286L13.9292 4.6C13.8288 4.49473 13.7078 4.4103 13.5733 4.35174C13.4389 4.29318 13.2937 4.26169 13.1465 4.25915C12.9993 4.25662 12.8531 4.28308 12.7166 4.33697C12.5801 4.39085 12.4561 4.47106 12.352 4.5728C12.2479 4.67454 12.1659 4.79573 12.1107 4.92915C12.0556 5.06256 12.0285 5.20546 12.0311 5.34932C12.0337 5.49318 12.0659 5.63506 12.1259 5.76648C12.1858 5.89791 12.2722 6.0162 12.3799 6.11429L15.2592 8.92857V8.92857Z" fill="#D03434"/>
</svg>
