<svg width="18" height="21" viewBox="0 0 18 21" fill="none" xmlns="http://www.w3.org/2000/svg">
<path fill-rule="evenodd" clip-rule="evenodd" d="M15 9C15.7956 9 16.5587 9.31607 17.1213 9.87868C17.6839 10.4413 18 11.2044 18 12V18C18 18.7956 17.6839 19.5587 17.1213 20.1213C16.5587 20.6839 15.7956 21 15 21H3C2.20435 21 1.44129 20.6839 0.87868 20.1213C0.316071 19.5587 0 18.7956 0 18V12C0 11.2044 0.316071 10.4413 0.87868 9.87868C1.44129 9.31607 2.20435 9 3 9V6C3 4.4087 3.63214 2.88258 4.75736 1.75736C5.88258 0.632141 7.4087 0 9 0C10.5913 0 12.1174 0.632141 13.2426 1.75736C14.3679 2.88258 15 4.4087 15 6V9ZM9 2C10.0609 2 11.0783 2.42143 11.8284 3.17157C12.5786 3.92172 13 4.93913 13 6V9H5V6C5 4.93913 5.42143 3.92172 6.17157 3.17157C6.92172 2.42143 7.93913 2 9 2V2ZM15 11H3C2.73478 11 2.48043 11.1054 2.29289 11.2929C2.10536 11.4804 2 11.7348 2 12V18C2 18.2652 2.10536 18.5196 2.29289 18.7071C2.48043 18.8946 2.73478 19 3 19H15C15.2652 19 15.5196 18.8946 15.7071 18.7071C15.8946 18.5196 16 18.2652 16 18V12C16 11.7348 15.8946 11.4804 15.7071 11.2929C15.5196 11.1054 15.2652 11 15 11Z" fill="#CC042A"/>
</svg>
