<svg width="360" height="355" viewBox="0 0 360 355" fill="none" xmlns="http://www.w3.org/2000/svg">
<path d="M180 0C80.5481 0 0 80.6372 0 180.199C0 264.885 58.0443 335.17 136.356 354.985C135.452 352.73 135.008 349.571 135.008 346.427V315.786H112.504C100.356 315.786 89.0962 310.387 84.1481 300.465C78.2962 289.653 77.3923 272.983 62.5481 262.615C58.0443 259.011 61.6443 255.407 66.5923 255.852C76.0443 258.551 83.6885 264.87 90.8885 274.317C98.0885 283.779 101.244 286.034 114.74 286.034C121.037 286.034 130.933 285.589 139.94 284.224C144.889 271.602 153.437 260.346 163.792 254.947C103.496 247.739 74.6962 218.003 74.6962 177.454C74.6962 159.879 82.3404 143.208 94.9481 128.793C90.9038 114.821 85.4962 85.9895 96.7557 74.7328C123.763 74.7328 139.956 92.308 144 96.8015C157.496 92.2926 172.356 89.5935 187.644 89.5935C203.392 89.5935 217.792 92.2926 231.289 96.8015C235.333 92.2926 251.54 74.7328 278.533 74.7328C289.333 85.5448 284.385 114.821 279.881 128.793C292.489 142.764 299.689 159.879 299.689 177.454C299.689 218.003 271.333 247.739 211.496 254.042C228.148 262.6 239.852 286.923 239.852 304.943V345.982C239.852 347.332 239.408 348.682 239.408 350.031C309.6 325.708 360 259.042 360 180.199C360 80.6372 279.452 0 180 0Z" fill="#FFCE00"/>
</svg>
